<svg xmlns="http://www.w3.org/2000/svg" width="48" height="48" viewBox="0 0 48 48">
  <g id="codepen" transform="translate(1489 -8459)">
    <ellipse id="Ellipse_11" data-name="Ellipse 11" cx="24" cy="24" rx="24" ry="24" transform="translate(-1489 8459)" fill="#00cbff"/>
    <g id="_3d-outlined-shape" data-name="3d-outlined-shape" transform="translate(-1479.611 8467.695)">
      <path id="Path_336" data-name="Path 336" d="M16.213.4a2.4,2.4,0,0,0-2.7.033L1.442,8.842A2.4,2.4,0,0,0,.414,10.811v9.063a2.4,2.4,0,0,0,1.077,2l12.273,8.114a2.4,2.4,0,0,0,2.647,0l12.517-8.27a2.4,2.4,0,0,0,1.077-2v-8.9a2.4,2.4,0,0,0-1.076-2Zm9.35,9.817-4.626,3.106L16.6,10.166,16.57,3.96ZM13.431,3.966V10.04L8.985,13.149,4.551,10.175Zm-10.1,9.2,2.87,1.923L3.335,17.1ZM13.507,26.116,4.553,20.111l4.473-3.126,4.481,3.006Zm-1.7-11.075,2.9-2.028,3.377,2.22-2.993,2.01ZM16.67,26.116V19.989l4.283-2.87,4.611,3.031ZM26.842,17.2l-3.04-2,3.04-2.039Z" transform="translate(-0.414 0)" fill="#f7f7f7"/>
    </g>
  </g>
</svg>
