<svg xmlns="http://www.w3.org/2000/svg" width="104.653" height="112.962" viewBox="0 0 104.653 112.962">
  <g id="creative_1_" data-name="creative (1)" transform="translate(-15.88)">
    <g id="Group_199" data-name="Group 199" transform="translate(38.673 22.27)">
      <g id="Group_198" data-name="Group 198">
        <path id="Path_86" data-name="Path 86" d="M132.533,85.12A29.554,29.554,0,0,0,103,114.653a33.615,33.615,0,0,0,13.961,26.812v21.328a2.094,2.094,0,0,0,.147.712v.167a2.1,2.1,0,0,0,.126.251l7.368,10.968a2.093,2.093,0,0,0,1.737.921h12.182a2.093,2.093,0,0,0,1.737-.921l7.368-10.968a2.1,2.1,0,0,0,.126-.251v-.167a2.094,2.094,0,0,0,.147-.712V141.465a33.614,33.614,0,0,0,13.961-26.812A29.554,29.554,0,0,0,132.533,85.12Zm4.981,86.569h-9.963l-4.563-6.782h19.068Zm-16.347-10.968v-5.547H143.9l.021,5.547ZM144.861,138.6v.063a2.093,2.093,0,0,0-.942,1.758v10.633H121.168V140.293a2.093,2.093,0,0,0-.942-1.758,29.3,29.3,0,0,1-13.019-23.945,25.347,25.347,0,0,1,50.673,0A29.3,29.3,0,0,1,144.861,138.6Z" transform="translate(-103 -85.12)" fill="#00cbff"/>
      </g>
    </g>
    <g id="Group_201" data-name="Group 201" transform="translate(66.951 31.752)">
      <g id="Group_200" data-name="Group 200">
        <path id="Path_87" data-name="Path 87" d="M213.173,121.36a2.093,2.093,0,0,0,0,4.186,15.782,15.782,0,0,1,15.761,15.761,2.093,2.093,0,0,0,4.186,0A19.968,19.968,0,0,0,213.173,121.36Z" transform="translate(-211.08 -121.36)" fill="#00cbff"/>
      </g>
    </g>
    <g id="Group_203" data-name="Group 203" transform="translate(15.88 49.606)">
      <g id="Group_202" data-name="Group 202">
        <path id="Path_88" data-name="Path 88" d="M33.043,189.6H17.973a2.093,2.093,0,1,0,0,4.186h15.07a2.093,2.093,0,0,0,2.093-2.093h0A2.093,2.093,0,0,0,33.043,189.6Z" transform="translate(-15.88 -189.6)" fill="#00cbff"/>
      </g>
    </g>
    <g id="Group_205" data-name="Group 205" transform="translate(101.277 49.606)">
      <g id="Group_204" data-name="Group 204">
        <path id="Path_89" data-name="Path 89" d="M359.443,189.6h-15.07a2.093,2.093,0,0,0,0,4.186h15.07a2.093,2.093,0,1,0,0-4.186Z" transform="translate(-342.28 -189.6)" fill="#00cbff"/>
      </g>
    </g>
    <g id="Group_207" data-name="Group 207" transform="translate(30.428 74.388)">
      <g id="Group_206" data-name="Group 206">
        <path id="Path_90" data-name="Path 90" d="M86.09,285.055a2.093,2.093,0,0,0-3.18,0v-.042l-10.7,10.737a2.093,2.093,0,1,0,2.951,2.951l10.7-10.7A2.093,2.093,0,0,0,86.09,285.055Z" transform="translate(-71.483 -284.323)" fill="#00cbff"/>
      </g>
    </g>
    <g id="Group_209" data-name="Group 209" transform="translate(90.988 14.148)">
      <g id="Group_208" data-name="Group 208">
        <path id="Path_91" data-name="Path 91" d="M316.991,54.58a2.093,2.093,0,0,0-2.723,0l-10.7,10.7a2.093,2.093,0,0,0,1.486,3.579l-.021-.021a2.094,2.094,0,0,0,1.486-.607l10.7-10.7A2.093,2.093,0,0,0,316.991,54.58Z" transform="translate(-302.953 -54.076)" fill="#00cbff"/>
      </g>
    </g>
    <g id="Group_211" data-name="Group 211" transform="translate(90.875 74.346)">
      <g id="Group_210" data-name="Group 210">
        <path id="Path_92" data-name="Path 92" d="M317.317,296.053a2.081,2.081,0,0,0-.415-.421l-10.7-10.737a2.093,2.093,0,1,0-2.951,2.951l10.7,10.7a2.093,2.093,0,1,0,3.366-2.488Z" transform="translate(-302.523 -284.163)" fill="#00cbff"/>
      </g>
    </g>
    <g id="Group_213" data-name="Group 213" transform="translate(30.656 14.148)">
      <g id="Group_212" data-name="Group 212" transform="translate(0)">
        <path id="Path_93" data-name="Path 93" d="M86.506,65.275l-10.7-10.7a2.093,2.093,0,0,0-2.951,2.951l10.7,10.7a2.093,2.093,0,0,0,2.951-2.951Z" transform="translate(-72.356 -54.076)" fill="#00cbff"/>
      </g>
    </g>
    <g id="Group_215" data-name="Group 215" transform="translate(66.113)">
      <g id="Group_214" data-name="Group 214">
        <path id="Path_94" data-name="Path 94" d="M209.97,0a2.093,2.093,0,0,0-2.093,2.093V17.226a2.093,2.093,0,0,0,2.029,2.155h.064a2.093,2.093,0,0,0,2.093-2.093V2.093A2.093,2.093,0,0,0,209.97,0Z" transform="translate(-207.876)" fill="#00cbff"/>
      </g>
    </g>
  </g>
</svg>
