<svg xmlns="http://www.w3.org/2000/svg" width="104.263" height="104.264" viewBox="0 0 104.263 104.264">
  <path id="decision" d="M102.581,82.4H92.491V65.586a18.429,18.429,0,0,0-5.823-13.438A18.319,18.319,0,0,0,92.491,38.68V21.863h10.09a1.681,1.681,0,0,0,1.189-2.871L85.272.494a1.68,1.68,0,0,0-2.378,0l-18.5,18.5a1.682,1.682,0,0,0,1.189,2.871h10.09V35.316a5.051,5.051,0,0,1-5.045,5.045H67.266A23.57,23.57,0,0,0,50.3,17.772l4.542-7.787A5.042,5.042,0,1,0,49.024,3.54l-22.486,3A5.04,5.04,0,0,0,16.816,8.41a5.006,5.006,0,0,0,.085.835L5.992,18.6a5.042,5.042,0,1,0-.947,9.995,4.936,4.936,0,0,0,.792-.081l6.258,8.134a23.546,23.546,0,0,0-.32,3.339L.158,64.874a1.683,1.683,0,0,0,1.523,2.394h10.09v20.18a1.683,1.683,0,0,0,1.682,1.682H30.27v15.135h3.363V87.448a1.682,1.682,0,0,0-1.682-1.682H15.135V65.586A1.682,1.682,0,0,0,13.453,63.9H4.322L14.977,41.073a1.7,1.7,0,0,0,.117-.528l6.518,8.474a8.388,8.388,0,1,0,11.129.445L39.7,36.931A4.814,4.814,0,0,0,40.36,37a5.029,5.029,0,0,0,3.671-8.483l4.509-7.728A20.2,20.2,0,0,1,63.9,40.361H42.041v3.363H70.629a8.418,8.418,0,0,0,8.408-8.408V20.182A1.682,1.682,0,0,0,77.356,18.5H69.644L84.083,4.06,98.521,18.5H90.809a1.682,1.682,0,0,0-1.682,1.682v18.5a14.991,14.991,0,0,1-5.159,11.353,18.372,18.372,0,0,0-9.976-2.945H42.041v3.363H73.993A15.153,15.153,0,0,1,89.128,65.586v18.5a1.683,1.683,0,0,0,1.682,1.682h7.712L84.083,100.2,69.644,85.766h7.712a1.682,1.682,0,0,0,1.682-1.682V68.95a8.417,8.417,0,0,0-8.408-8.408H42.041V63.9H61.406L53.97,80.016a1.65,1.65,0,0,0-.157.705v23.543h3.363V81.091L65.109,63.9h5.52a5.05,5.05,0,0,1,5.045,5.045V82.4H65.584a1.681,1.681,0,0,0-1.189,2.87l18.5,18.5a1.679,1.679,0,0,0,2.378,0l18.5-18.5a1.68,1.68,0,0,0-1.189-2.87ZM35.791,29.845,21.54,25.655a20.159,20.159,0,0,1,8.06-4.637l6.925,7.694a5.034,5.034,0,0,0-.735,1.133Zm-17.9-5.265-8-2.353A5.023,5.023,0,0,0,9,20.448l9.6-8.227a4.993,4.993,0,0,0,3.266,1.233,5.175,5.175,0,0,0,.856-.086L27.159,18.3a23.6,23.6,0,0,0-9.268,6.276Zm7.8-12.93a5.014,5.014,0,0,0,.955-1.733l22.486-3a5.058,5.058,0,0,0,2.155,2.474l-4.466,7.654a23.577,23.577,0,0,0-3.1-.228H35.315a23.49,23.49,0,0,0-4.564.45ZM53.813,3.365a1.682,1.682,0,1,1-1.682,1.682A1.684,1.684,0,0,1,53.813,3.365ZM21.862,6.728A1.682,1.682,0,1,1,20.18,8.41,1.684,1.684,0,0,1,21.862,6.728ZM3.363,23.545a1.682,1.682,0,1,1,1.682,1.682A1.684,1.684,0,0,1,3.363,23.545Zm5.451,3.319a5,5,0,0,0,.8-1.21l6.056,1.781A23.479,23.479,0,0,0,13.146,32.5ZM26.906,60.541A5.045,5.045,0,1,1,31.951,55.5,5.052,5.052,0,0,1,26.906,60.541Zm0-13.453a8.313,8.313,0,0,0-2.266.349l-8.962-11.65a20.065,20.065,0,0,1,3.4-7.352L35.51,33.269A5.025,5.025,0,0,0,36.7,35.408L29.9,47.663a8.3,8.3,0,0,0-2.989-.575ZM40.36,33.635a1.682,1.682,0,1,1,1.682-1.682A1.685,1.685,0,0,1,40.36,33.635Zm.677-6.658a5.1,5.1,0,0,0-.677-.068,5.174,5.174,0,0,0-.856.085l-6.048-6.718c.614-.055,1.231-.094,1.858-.094h8.408c.419,0,.828.037,1.24.062Zm0,0" transform="translate(0 -0.001)" fill="#00cbff"/>
</svg>
