<svg xmlns="http://www.w3.org/2000/svg" width="48.475" height="48" viewBox="0 0 48.475 48">
  <g id="github-logo" transform="translate(0 -5.365)">
    <path id="Path_16" data-name="Path 16" d="M45.224,17.618A24.317,24.317,0,0,0,36.4,8.664a23.438,23.438,0,0,0-12.166-3.3,23.441,23.441,0,0,0-12.166,3.3A24.615,24.615,0,0,0,0,29.966,24.151,24.151,0,0,0,4.623,44.429a23.764,23.764,0,0,0,11.945,8.889,1.4,1.4,0,0,0,1.262-.224,1.261,1.261,0,0,0,.41-.961q0-.1-.016-1.73t-.016-2.85l-.726.127a9.125,9.125,0,0,1-1.752.112,13.155,13.155,0,0,1-2.193-.224,4.866,4.866,0,0,1-2.115-.96,4.063,4.063,0,0,1-1.388-1.97L9.72,43.9a8.027,8.027,0,0,0-.994-1.633,3.825,3.825,0,0,0-1.373-1.217l-.221-.161a2.331,2.331,0,0,1-.41-.385,1.761,1.761,0,0,1-.284-.448q-.095-.225.158-.369a2.02,2.02,0,0,1,.915-.143l.631.1a4.577,4.577,0,0,1,1.562.769,5.14,5.14,0,0,1,1.53,1.665,5.619,5.619,0,0,0,1.752,2,3.678,3.678,0,0,0,2.067.688,8.845,8.845,0,0,0,1.8-.16,6.212,6.212,0,0,0,1.42-.481,5.221,5.221,0,0,1,1.546-3.3,21.32,21.32,0,0,1-3.235-.577A12.775,12.775,0,0,1,13.617,39a8.527,8.527,0,0,1-2.541-2.146A10.373,10.373,0,0,1,9.42,33.489a16.219,16.219,0,0,1-.647-4.8,9.422,9.422,0,0,1,2.493-6.6,8.731,8.731,0,0,1,.221-6.534,4.364,4.364,0,0,1,2.714.432,18.846,18.846,0,0,1,2.635,1.233q.837.512,1.341.865a22.467,22.467,0,0,1,12.119,0l1.2-.768a16.876,16.876,0,0,1,2.9-1.41,4.08,4.08,0,0,1,2.557-.352,8.646,8.646,0,0,1,.252,6.534,9.424,9.424,0,0,1,2.494,6.6,16.4,16.4,0,0,1-.647,4.821,9.969,9.969,0,0,1-1.672,3.364A8.852,8.852,0,0,1,34.826,39a12.8,12.8,0,0,1-2.967,1.249,21.3,21.3,0,0,1-3.235.577,5.753,5.753,0,0,1,1.641,4.548v6.758a1.286,1.286,0,0,0,.395.961,1.355,1.355,0,0,0,1.246.224,23.76,23.76,0,0,0,11.945-8.889,24.156,24.156,0,0,0,4.623-14.463A24.363,24.363,0,0,0,45.224,17.618Z" transform="translate(0)" fill="#00cbff"/>
  </g>
</svg>
