<svg xmlns="http://www.w3.org/2000/svg" width="104.355" height="104.343" viewBox="0 0 104.355 104.343">
  <g id="intellectual" transform="translate(0 -0.029)">
    <g id="Group_161" data-name="Group 161" transform="translate(66.09 41.766)">
      <g id="Group_160" data-name="Group 160">
        <path id="Path_66" data-name="Path 66" d="M342.289,231.152l-.025-31.73a7.4,7.4,0,0,0-14.687-1.28l-4.1,23.253a6.641,6.641,0,0,0-4.708,1.162l-14,9.846a1.736,1.736,0,0,0-.739,1.422V252.9a1.739,1.739,0,0,0,1.739,1.739h17.39A1.739,1.739,0,0,0,324.9,252.9v-2.2l11.449-7.29A14.713,14.713,0,0,0,342.289,231.152Zm-7.845,9.342h0l-12.218,7.779a1.741,1.741,0,0,0-.8,1.467v1.416H307.508V234.728l13.258-9.326a3.2,3.2,0,0,1,3.755,5.17l-9.362,7.021,2.087,2.782,9.362-7.021a6.672,6.672,0,0,0,.714-10.056,6.946,6.946,0,0,0-.563-.5L331,198.748a3.921,3.921,0,0,1,7.783.678l.025,31.728A11.208,11.208,0,0,1,334.443,240.495Z" transform="translate(-304.03 -192.029)" fill="#00cbff"/>
      </g>
    </g>
    <g id="Group_163" data-name="Group 163" transform="translate(0 41.764)">
      <g id="Group_162" data-name="Group 162">
        <path id="Path_67" data-name="Path 67" d="M37.527,232.4l-14-9.846a6.642,6.642,0,0,0-4.708-1.162l-4.1-23.253a7.4,7.4,0,0,0-14.687,1.28L.007,231.149a14.722,14.722,0,0,0,5.977,12.275L17.4,250.69v2.2a1.739,1.739,0,0,0,1.739,1.739h17.39a1.739,1.739,0,0,0,1.739-1.739V233.82A1.737,1.737,0,0,0,37.527,232.4Zm-2.739,18.753H20.875v-1.416a1.741,1.741,0,0,0-.8-1.467L7.887,240.513a11.216,11.216,0,0,1-4.4-9.363l.025-31.73a3.921,3.921,0,0,1,7.783-.678l4.243,24.045a6.949,6.949,0,0,0-.563.5,6.674,6.674,0,0,0,.714,10.056l9.362,7.021,2.087-2.782-9.362-7.021a3.2,3.2,0,0,1,3.755-5.17l13.258,9.326v16.429Z" transform="translate(0 -192.022)" fill="#00cbff"/>
      </g>
    </g>
    <g id="Group_165" data-name="Group 165" transform="translate(52.068 0.029)">
      <g id="Group_164" data-name="Group 164">
        <path id="Path_68" data-name="Path 68" d="M239.635.029h-.11l.11,3.478a33.381,33.381,0,0,1,6.341.607L246.64.7A36.8,36.8,0,0,0,239.635.029Z" transform="translate(-239.525 -0.029)" fill="#00cbff"/>
      </g>
    </g>
    <g id="Group_167" data-name="Group 167" transform="translate(38.102 0.746)">
      <g id="Group_166" data-name="Group 166">
        <path id="Path_69" data-name="Path 69" d="M182.119,3.326a36.239,36.239,0,0,0-6.844,2.1l1.342,3.208A32.849,32.849,0,0,1,182.8,6.736Z" transform="translate(-175.275 -3.326)" fill="#00cbff"/>
      </g>
    </g>
    <g id="Group_169" data-name="Group 169" transform="translate(70.552 59.9)">
      <g id="Group_168" data-name="Group 168">
        <path id="Path_70" data-name="Path 70" d="M329.554,275.451a33.272,33.272,0,0,1-5,4.114l1.938,2.889a36.831,36.831,0,0,0,5.525-4.544Z" transform="translate(-324.552 -275.451)" fill="#00cbff"/>
      </g>
    </g>
    <g id="Group_171" data-name="Group 171" transform="translate(64.719 2.753)">
      <g id="Group_170" data-name="Group 170">
        <path id="Path_71" data-name="Path 71" d="M299.041,12.561l-1.321,3.217a33.1,33.1,0,0,1,5.717,3.036l1.924-2.9A36.466,36.466,0,0,0,299.041,12.561Z" transform="translate(-297.72 -12.561)" fill="#00cbff"/>
      </g>
    </g>
    <g id="Group_173" data-name="Group 173" transform="translate(84.592 36.401)">
      <g id="Group_172" data-name="Group 172">
        <path id="Path_72" data-name="Path 72" d="M389.77,167.5a33.369,33.369,0,0,1-.628,6.444l3.412.674a36.838,36.838,0,0,0,.694-7.118v-.148Z" transform="translate(-389.142 -167.35)" fill="#00cbff"/>
      </g>
    </g>
    <g id="Group_175" data-name="Group 175" transform="translate(75.455 10.63)">
      <g id="Group_174" data-name="Group 174">
        <path id="Path_73" data-name="Path 73" d="M349.562,48.8l-2.451,2.468a33.336,33.336,0,0,1,4.131,4.99l2.882-1.946A36.79,36.79,0,0,0,349.562,48.8Z" transform="translate(-347.111 -48.798)" fill="#00cbff"/>
      </g>
    </g>
    <g id="Group_177" data-name="Group 177" transform="translate(58.658 67.075)">
      <g id="Group_176" data-name="Group 176">
        <path id="Path_74" data-name="Path 74" d="M276.028,308.455a32.859,32.859,0,0,1-6.191,1.881l.678,3.412a36.352,36.352,0,0,0,6.848-2.081Z" transform="translate(-269.837 -308.455)" fill="#00cbff"/>
      </g>
    </g>
    <g id="Group_179" data-name="Group 179" transform="translate(82.664 22.437)">
      <g id="Group_178" data-name="Group 178">
        <path id="Path_75" data-name="Path 75" d="M383.479,103.111l-3.208,1.345a32.9,32.9,0,0,1,1.9,6.186l3.409-.69A36.416,36.416,0,0,0,383.479,103.111Z" transform="translate(-380.271 -103.111)" fill="#00cbff"/>
      </g>
    </g>
    <g id="Group_181" data-name="Group 181" transform="translate(79.662 49.188)">
      <g id="Group_180" data-name="Group 180">
        <path id="Path_76" data-name="Path 76" d="M369.516,226.17a33.1,33.1,0,0,1-3.054,5.709l2.892,1.933a36.612,36.612,0,0,0,3.375-6.31Z" transform="translate(-366.462 -226.17)" fill="#00cbff"/>
      </g>
    </g>
    <g id="Group_183" data-name="Group 183" transform="translate(45.097 68.969)">
      <g id="Group_182" data-name="Group 182">
        <path id="Path_77" data-name="Path 77" d="M214.536,317.791a33.287,33.287,0,0,1-6.41-.621l-.671,3.414a36.852,36.852,0,0,0,7.081.686h.036Z" transform="translate(-207.455 -317.17)" fill="#00cbff"/>
      </g>
    </g>
    <g id="Group_185" data-name="Group 185" transform="translate(21.844 54.951)">
      <g id="Group_184" data-name="Group 184">
        <path id="Path_78" data-name="Path 78" d="M103.373,252.685l-2.887,1.941a36.831,36.831,0,0,0,4.552,5.52l2.456-2.462A33.287,33.287,0,0,1,103.373,252.685Z" transform="translate(-100.486 -252.685)" fill="#00cbff"/>
      </g>
    </g>
    <g id="Group_187" data-name="Group 187" transform="translate(26.286 6.236)">
      <g id="Group_186" data-name="Group 186">
        <path id="Path_79" data-name="Path 79" d="M126.435,28.584a36.721,36.721,0,0,0-5.516,4.557l2.466,2.452a33.233,33.233,0,0,1,4.993-4.124Z" transform="translate(-120.919 -28.584)" fill="#00cbff"/>
      </g>
    </g>
    <g id="Group_189" data-name="Group 189" transform="translate(15.658 29.506)">
      <g id="Group_188" data-name="Group 188">
        <path id="Path_80" data-name="Path 80" d="M72.707,135.631a36.855,36.855,0,0,0-.678,7.043v.073l3.478-.073a33.363,33.363,0,0,1,.614-6.377Z" transform="translate(-72.029 -135.631)" fill="#00cbff"/>
      </g>
    </g>
    <g id="Group_191" data-name="Group 191" transform="translate(18.395 16.334)">
      <g id="Group_190" data-name="Group 190">
        <path id="Path_81" data-name="Path 81" d="M87.985,75.037a36.519,36.519,0,0,0-3.363,6.317l3.217,1.325a32.921,32.921,0,0,1,3.042-5.714Z" transform="translate(-84.622 -75.037)" fill="#00cbff"/>
      </g>
    </g>
    <g id="Group_193" data-name="Group 193" transform="translate(16.367 43.061)">
      <g id="Group_192" data-name="Group 192">
        <path id="Path_82" data-name="Path 82" d="M78.7,197.986l-3.41.682a36.325,36.325,0,0,0,2.088,6.847l3.21-1.338A32.9,32.9,0,0,1,78.7,197.986Z" transform="translate(-75.29 -197.986)" fill="#00cbff"/>
      </g>
    </g>
    <g id="Group_195" data-name="Group 195" transform="translate(31.931 64.055)">
      <g id="Group_194" data-name="Group 194">
        <path id="Path_83" data-name="Path 83" d="M148.819,294.564l-1.931,2.892a36.553,36.553,0,0,0,6.313,3.369l1.328-3.215A32.995,32.995,0,0,1,148.819,294.564Z" transform="translate(-146.888 -294.564)" fill="#00cbff"/>
      </g>
    </g>
    <g id="Group_197" data-name="Group 197" transform="translate(26.091 6.985)">
      <g id="Group_196" data-name="Group 196">
        <path id="Path_84" data-name="Path 84" d="M172.2,54.637c0-5.339-3.317-11.064-8.79-12.031a11.608,11.608,0,0,0-11.419-10.577,11.428,11.428,0,0,0-5.877,1.621,11.428,11.428,0,0,0-5.877-1.621,11.97,11.97,0,0,0-11.754,10.945,12.079,12.079,0,0,0-8.455,11.663,12.389,12.389,0,0,0,2.131,6.956,12.389,12.389,0,0,0-2.131,6.956c0,5.339,3.317,11.064,8.79,12.031a11.608,11.608,0,0,0,11.419,10.577,11.428,11.428,0,0,0,5.877-1.621,11.428,11.428,0,0,0,5.877,1.621,11.97,11.97,0,0,0,11.754-10.945A12.079,12.079,0,0,0,172.2,68.549a12.389,12.389,0,0,0-2.131-6.956A12.39,12.39,0,0,0,172.2,54.637ZM144.373,47.68a3.478,3.478,0,1,1-6.956,0h-3.478a6.964,6.964,0,0,0,6.956,6.956,6.874,6.874,0,0,0,3.478-.968V86.495a7.975,7.975,0,0,1-4.138,1.184,8.133,8.133,0,0,1-7.9-7.244,6.938,6.938,0,0,0-1.87-13.625v3.478a3.478,3.478,0,0,1,0,6.956c-4.161,0-6.956-4.5-6.956-8.7a8.888,8.888,0,0,1,2.156-5.818,1.737,1.737,0,0,0,0-2.276,8.888,8.888,0,0,1-2.156-5.818,8.557,8.557,0,0,1,6.961-8.565A1.9,1.9,0,0,0,131.9,44.2a8.531,8.531,0,0,1,8.335-8.7,7.973,7.973,0,0,1,4.138,1.184Zm22.191,15.05a8.888,8.888,0,0,1,2.156,5.818,8.557,8.557,0,0,1-6.961,8.565,1.9,1.9,0,0,0-1.434,1.869,8.531,8.531,0,0,1-8.335,8.7,7.973,7.973,0,0,1-4.138-1.184V66.81a3.478,3.478,0,0,1,6.956,0h3.478a6.964,6.964,0,0,0-6.956-6.956,6.874,6.874,0,0,0-3.478.968V36.691a7.975,7.975,0,0,1,4.138-1.184,8.134,8.134,0,0,1,7.9,7.244,6.938,6.938,0,0,0,1.87,13.625V52.9a3.478,3.478,0,0,1,0-6.956c4.161,0,6.956,4.5,6.956,8.7a8.888,8.888,0,0,1-2.156,5.818A1.736,1.736,0,0,0,166.563,62.731Z" transform="translate(-120.025 -32.029)" fill="#00cbff"/>
      </g>
    </g>
  </g>
</svg>
