<svg id="linkedin" xmlns="http://www.w3.org/2000/svg" width="48.32" height="48" viewBox="0 0 48.32 48">
  <path id="Path_326" data-name="Path 326" d="M24.16,0A24,24,0,1,1,0,24,24.081,24.081,0,0,1,24.16,0Z" fill="#00cbff"/>
  <path id="Path_327" data-name="Path 327" d="M81.96,96.13h4.992V79.491H81.96Zm19.448-17.215a7.493,7.493,0,0,0-6.128,2.838V79.437h-5.01V96.13h5.01V87.1a3.963,3.963,0,0,1,3.937-3.769c2.189,0,2.729,1.861,2.729,3.722v9.073h4.992V86.685C106.938,80.125,103.832,78.915,101.408,78.915ZM84.432,77.829a2.5,2.5,0,1,0-2.5-2.5A2.5,2.5,0,0,0,84.432,77.829Z" transform="translate(-69.585 -61.862)" fill="#fff"/>
</svg>
