<svg xmlns="http://www.w3.org/2000/svg" width="101.381" height="100.364" viewBox="0 0 101.381 100.364">
  <g id="support" transform="translate(0)">
    <path id="Path_85" data-name="Path 85" d="M91.152,66.864l6.936-6.937a11.267,11.267,0,0,0-4.693-18.744A11.265,11.265,0,0,0,84.31,23.258c-.126,0-.252,0-.378.006A11.245,11.245,0,0,0,72.309,11.641c0-.125.006-.252.006-.378A11.263,11.263,0,0,0,53.089,3.3l-2.4,2.4-2.4-2.4a11.254,11.254,0,0,0-19.212,8.339c-.127,0-.254-.009-.381-.009A11.247,11.247,0,0,0,17.453,23.268c-.128,0-.254-.009-.382-.009A11.264,11.264,0,0,0,7.988,41.181,11.269,11.269,0,0,0,3.264,59.9l.032.034,6.946,6.944.029.03a11.424,11.424,0,0,0,1.33,1.139L9.547,70.1a9.958,9.958,0,0,0-2.865,7.664,11.57,11.57,0,0,0,3.424,7.584L21.854,97.1a11.191,11.191,0,0,0,15.808,0l5.461-5.462a35.964,35.964,0,0,0,15.136,0l5.459,5.46a11.191,11.191,0,0,0,15.808,0L91.276,85.346c4.358-4.358,4.853-10.954,1.1-14.7l-2.5-2.5L91.111,66.9ZM36.665,7.6A5.184,5.184,0,0,1,44,7.6l9.3,9.3a5.184,5.184,0,0,1-3.665,8.85h0a5.152,5.152,0,0,1-3.665-1.518l0,0-9.3-9.3a.313.313,0,0,0-.023-.022A5.191,5.191,0,0,1,36.665,7.6ZM25.021,26.543a5.184,5.184,0,0,1,7.343-7.319l0,0,.01.009,9.292,9.292.018.019,2.309,2.309a5.183,5.183,0,1,1-7.33,7.331l-.037-.036-2.279-2.28-.009-.01-9.3-9.3h0ZM13.408,30.855a5.183,5.183,0,0,1,7.33,0l9.313,9.313a5.183,5.183,0,0,1-7.34,7.32l-.036-.036-9.238-9.238-.029-.03a5.183,5.183,0,0,1,0-7.331ZM7.623,55.661l-.035-.036A5.184,5.184,0,0,1,14.924,48.3L21.9,55.276a5.184,5.184,0,0,1-3.664,8.849h0a5.281,5.281,0,0,1-.753-.054l-.056-.009a5.144,5.144,0,0,1-2.835-1.432l-.024-.025ZM42.958,85.349c-.026-.007-.052-.01-.077-.016-.061-.015-.122-.029-.183-.039-.045-.008-.09-.013-.135-.019s-.1-.012-.151-.016-.107-.007-.16-.008-.086,0-.129,0-.114,0-.17.009l-.123.011c-.056.006-.11.015-.166.024s-.086.015-.129.025-.1.022-.149.036-.094.026-.142.041l-.13.046c-.05.019-.1.039-.149.06s-.079.036-.118.054-.1.049-.146.076-.078.045-.117.069-.087.054-.13.084-.086.062-.128.094-.069.053-.1.08c-.049.042-.1.085-.143.13-.018.017-.037.032-.055.05l-6.66,6.66a5.1,5.1,0,0,1-7.212,0L14.4,81.049a5.506,5.506,0,0,1-1.652-3.6A3.956,3.956,0,0,1,13.846,74.4l4.2-4.2c.064,0,.128,0,.193,0h0A11.259,11.259,0,0,0,28.721,54.84a11.246,11.246,0,0,0,8.8-9.412,11.311,11.311,0,0,0,2.812.354h0A11.262,11.262,0,0,0,51.593,34.521a11.348,11.348,0,0,0-.352-2.808A11.264,11.264,0,0,0,57.6,12.6L54.989,9.994l2.4-2.4a5.184,5.184,0,1,1,7.331,7.33,3.039,3.039,0,1,0,4.3,4.3,5.184,5.184,0,1,1,7.33,7.332,3.039,3.039,0,0,0,4.3,4.3,5.184,5.184,0,0,1,7.371,7.291l-.041.041-4.359,4.359a3.039,3.039,0,0,0-.247,4.019l.156.2a3.039,3.039,0,0,0,3.951.741,5.184,5.184,0,0,1,6.315,8.122L86.814,62.6l-.04.042L71.8,77.62A29.967,29.967,0,0,1,42.958,85.349ZM88.081,74.94c1.333,1.333.818,4.188-1.1,6.109L75.229,92.8a5.1,5.1,0,0,1-7.212,0l-3.233-3.233A35.976,35.976,0,0,0,76.1,81.918l9.48-9.48Zm0,0" transform="translate(0 0)" fill="#00cbff"/>
  </g>
</svg>
