<svg xmlns="http://www.w3.org/2000/svg" width="48" height="48" viewBox="0 0 48 48">
  <g id="twitter" transform="translate(-0.001)">
    <circle id="Ellipse_1" data-name="Ellipse 1" cx="24" cy="24" r="24" transform="translate(0.001 0)" fill="#00cbff"/>
    <g id="Group_12" data-name="Group 12" transform="translate(9.044 13.077)">
      <path id="Path_17" data-name="Path 17" d="M56.229,37.023a12.741,12.741,0,0,1-3.668,1,6.4,6.4,0,0,0,2.808-3.532,12.784,12.784,0,0,1-4.055,1.549,6.391,6.391,0,0,0-10.882,5.825A18.127,18.127,0,0,1,27.269,35.2a6.393,6.393,0,0,0,1.976,8.526,6.341,6.341,0,0,1-2.892-.8c0,.027,0,.054,0,.081a6.39,6.39,0,0,0,5.123,6.261,6.411,6.411,0,0,1-2.884.11,6.393,6.393,0,0,0,5.965,4.435A12.891,12.891,0,0,1,25.1,56.454a18.063,18.063,0,0,0,9.788,2.869c11.746,0,18.169-9.73,18.169-18.17,0-.277-.006-.552-.019-.826a12.95,12.95,0,0,0,3.187-3.305Z" transform="translate(-25.103 -34.028)" fill="#f7f7f7"/>
    </g>
  </g>
</svg>
